<svg width="364" height="364" viewBox="0 0 364 364" fill="none" xmlns="http://www.w3.org/2000/svg">
<g id="ball">
<g id="Group">
<g id="Group_2">
<path id="Vector" d="M301.574 44.863C377.179 110.842 385.027 225.667 319.098 301.334C253.169 376.998 138.435 384.851 62.827 318.872C-12.778 252.892 -20.625 138.067 45.303 62.403C111.232 -13.264 225.967 -21.117 301.574 44.863Z" fill="#BF272C"/>
<path id="Vector_2" d="M291.079 53.779C327.122 85.232 298.899 154.312 235.508 227.067C172.116 299.821 106.268 338.707 70.227 307.254C-2.47201 243.813 -14.374 138.4 49.018 65.647C112.411 -7.112 218.379 -9.66201 291.079 53.779Z" fill="url(#paint0_radial_2_3)"/>
<path id="Vector_3" opacity="0.5" d="M318.916 62.169C309.083 116.22 281.27 174.067 236.769 225.142C190.003 278.815 133.324 315.233 78.671 331.243" stroke="black" stroke-width="1.6211" stroke-miterlimit="10"/>
<g id="Group_3">
<path id="Vector_4" opacity="0.2" d="M248.549 235.8C290.116 188.093 318.934 133.381 331.558 78.98C327.57 73.173 323.203 67.563 318.475 62.17C308.642 116.221 280.838 174.066 236.335 225.142C189.569 278.815 132.892 315.217 78.239 331.229C84.154 335.345 90.243 339.076 96.481 342.402C151.153 323.29 204.84 285.965 248.549 235.8Z" fill="#BF272C"/>
<path id="Vector_5" d="M78.239 331.229C132.892 315.217 189.569 278.815 236.335 225.142C280.838 174.067 308.642 116.221 318.475 62.17C314.08 57.154 309.372 52.329 304.344 47.731C296.831 104.533 268.437 163.624 224.121 214.483C177.64 267.829 119.387 305.16 62.22 318.715C62.279 318.768 62.336 318.819 62.395 318.872C67.504 323.332 72.799 327.441 78.239 331.229Z" fill="url(#paint1_radial_2_3)"/>
</g>
<g id="Group_4">
<path id="Vector_6" opacity="0.5" d="M96.481 342.401C151.153 323.29 204.84 285.965 248.549 235.8C290.116 188.093 318.934 133.381 331.558 78.98" stroke="#D1D3D4" stroke-width="1.6211" stroke-miterlimit="10" stroke-linecap="round" stroke-linejoin="round"/>
<path id="Vector_7" opacity="0.5" d="M304.344 47.73C296.831 104.532 268.437 163.623 224.121 214.482C177.64 267.829 119.387 305.16 62.22 318.715" stroke="#D1D3D4" stroke-width="1.6211" stroke-miterlimit="10" stroke-linecap="round" stroke-linejoin="round"/>
<g id="Group_5">
<g id="Group_6">
<path id="Vector_8" d="M96.481 342.401C97.245 342.134 98.009 341.863 98.772 341.589" stroke="white" stroke-width="1.6211" stroke-linecap="round" stroke-linejoin="round"/>
<path id="Vector_9" d="M104.913 339.307C156.653 319.414 207.089 283.383 248.549 235.8C288.703 189.715 316.959 137.094 330.214 84.53" stroke="white" stroke-width="1.6211" stroke-linecap="round" stroke-linejoin="round" stroke-dasharray="4.91 6.55"/>
<path id="Vector_10" d="M330.998 81.345C331.188 80.556 331.375 79.768 331.558 78.979" stroke="white" stroke-width="1.6211" stroke-linecap="round" stroke-linejoin="round"/>
</g>
</g>
<g id="Group_7">
<g id="Group_8">
<path id="Vector_11" d="M304.344 47.73C304.238 48.532 304.127 49.334 304.013 50.138" stroke="white" stroke-width="1.6211" stroke-linecap="round" stroke-linejoin="round"/>
<path id="Vector_12" d="M303.021 56.498C293.873 110.58 266.161 166.235 224.121 214.482C179.125 266.124 123.098 302.757 67.703 317.342" stroke="white" stroke-width="1.6211" stroke-linecap="round" stroke-linejoin="round" stroke-dasharray="4.83 6.44"/>
<path id="Vector_13" d="M64.581 318.142C63.794 318.337 63.007 318.529 62.22 318.715C62.279 318.768 62.336 318.819 62.395 318.872" stroke="white" stroke-width="1.6211" stroke-linecap="round" stroke-linejoin="round"/>
</g>
</g>
</g>
<g id="Group_9">
<g id="Group_10">
<g id="Group_11">
<path id="Vector_14" d="M344.45 111.369C344.034 111.243 343.552 108.806 344.328 106.237C344.802 104.945 345.218 104.909 345.637 105.035C346.05 105.16 345.614 107.435 345.524 107.79C344.99 109.871 344.802 111.476 344.45 111.369Z" fill="white" stroke="white" stroke-width="0.4067" stroke-miterlimit="10"/>
</g>
<g id="Group_12">
<path id="Vector_15" d="M341.209 121.021C340.799 120.881 340.396 118.429 341.254 115.889C342.104 113.34 342.27 111.347 342.684 111.484C343.093 111.621 343.594 113.824 342.74 116.388C341.877 118.945 341.617 121.162 341.209 121.021Z" fill="white" stroke="white" stroke-width="0.4067" stroke-miterlimit="10"/>
</g>
<g id="Group_13">
<path id="Vector_16" d="M337.256 131.721C336.851 131.569 336.528 129.105 337.468 126.593C338.401 124.073 338.633 122.087 339.043 122.238C339.446 122.387 339.875 124.606 338.937 127.141C337.99 129.667 337.66 131.874 337.256 131.721Z" fill="white" stroke="white" stroke-width="0.4067" stroke-miterlimit="10"/>
</g>
<g id="Group_14">
<path id="Vector_17" d="M332.963 142.284C332.563 142.118 332.318 139.645 333.338 137.166C334.351 134.677 334.647 132.699 335.052 132.862C335.452 133.025 335.809 135.257 334.789 137.759C333.764 140.256 333.361 142.45 332.963 142.284Z" fill="white" stroke="white" stroke-width="0.4067" stroke-miterlimit="10"/>
</g>
<g id="Group_15">
<path id="Vector_18" d="M328.344 152.705C327.949 152.527 327.781 150.049 328.878 147.601C329.967 145.145 330.325 143.178 330.726 143.354C331.12 143.529 331.406 145.77 330.309 148.241C329.206 150.702 328.736 152.884 328.344 152.705Z" fill="white" stroke="white" stroke-width="0.4067" stroke-miterlimit="10"/>
</g>
<g id="Group_16">
<path id="Vector_19" d="M323.411 162.976C323.021 162.786 322.932 160.304 324.093 157.886C325.269 155.47 325.68 153.512 326.076 153.701C326.464 153.887 326.686 156.138 325.505 158.568C324.337 161 323.799 163.166 323.411 162.976Z" fill="white" stroke="white" stroke-width="0.4067" stroke-miterlimit="10"/>
</g>
<g id="Group_17">
<path id="Vector_20" d="M318.176 173.096C317.791 172.895 317.774 170.411 319.008 168.029C320.254 165.649 320.726 163.704 321.114 163.905C321.496 164.102 321.651 166.359 320.397 168.754C319.158 171.148 318.558 173.298 318.176 173.096Z" fill="white" stroke="white" stroke-width="0.4067" stroke-miterlimit="10"/>
</g>
<g id="Group_18">
<path id="Vector_21" d="M312.646 183.062C312.269 182.848 312.323 180.367 313.625 178.021C314.939 175.677 315.467 173.748 315.852 173.959C316.227 174.167 316.315 176.428 314.994 178.785C313.685 181.143 313.021 183.273 312.646 183.062Z" fill="white" stroke="white" stroke-width="0.4067" stroke-miterlimit="10"/>
</g>
<g id="Group_19">
<path id="Vector_22" d="M306.832 192.865C306.462 192.641 306.587 190.161 307.956 187.853C309.336 185.547 309.918 183.634 310.297 183.858C310.667 184.076 310.691 186.339 309.303 188.657C307.926 190.977 307.203 193.088 306.832 192.865Z" fill="white" stroke="white" stroke-width="0.4067" stroke-miterlimit="10"/>
</g>
<g id="Group_20">
<path id="Vector_23" d="M300.748 202.502C300.382 202.269 300.577 199.794 302.009 197.525C303.454 195.259 304.09 193.362 304.462 193.596C304.826 193.825 304.785 196.087 303.334 198.365C301.892 200.646 301.11 202.736 300.748 202.502Z" fill="white" stroke="white" stroke-width="0.4067" stroke-miterlimit="10"/>
</g>
<g id="Group_21">
<path id="Vector_24" d="M294.398 211.97C294.04 211.726 294.302 209.257 295.795 207.029C297.302 204.803 297.991 202.925 298.356 203.17C298.712 203.409 298.611 205.669 297.096 207.906C295.594 210.145 294.755 212.213 294.398 211.97Z" fill="white" stroke="white" stroke-width="0.4067" stroke-miterlimit="10"/>
</g>
<g id="Group_22">
<path id="Vector_25" d="M287.795 221.261C287.443 221.008 287.772 218.547 289.325 216.36C290.891 214.176 291.631 212.318 291.988 212.572C292.34 212.821 292.176 215.078 290.602 217.272C289.039 219.47 288.145 221.513 287.795 221.261Z" fill="white" stroke="white" stroke-width="0.4067" stroke-miterlimit="10"/>
</g>
<g id="Group_23">
<path id="Vector_26" d="M280.944 230.372C280.599 230.109 280.993 227.658 282.606 225.514C284.229 223.372 285.019 221.535 285.369 221.798C285.714 222.057 285.489 224.307 283.856 226.459C282.235 228.614 281.288 230.636 280.944 230.372Z" fill="white" stroke="white" stroke-width="0.4067" stroke-miterlimit="10"/>
</g>
<g id="Group_24">
<path id="Vector_27" d="M273.856 239.3C273.519 239.028 273.976 236.589 275.644 234.487C277.325 232.388 278.162 230.573 278.505 230.845C278.842 231.112 278.559 233.357 276.87 235.465C275.193 237.577 274.191 239.571 273.856 239.3Z" fill="white" stroke="white" stroke-width="0.4067" stroke-miterlimit="10"/>
</g>
<g id="Group_25">
<path id="Vector_28" d="M266.54 248.037C266.21 247.757 266.73 245.329 268.454 243.272C270.186 241.219 271.071 239.424 271.408 239.707C271.737 239.982 271.395 242.219 269.653 244.282C267.92 246.35 266.868 248.316 266.54 248.037Z" fill="white" stroke="white" stroke-width="0.4067" stroke-miterlimit="10"/>
</g>
<g id="Group_26">
<path id="Vector_29" d="M258.997 256.58C258.672 256.29 259.26 253.878 261.035 251.867C262.821 249.86 263.754 248.09 264.081 248.38C264.404 248.665 264.004 250.892 262.208 252.909C260.423 254.93 259.318 256.868 258.997 256.58Z" fill="white" stroke="white" stroke-width="0.4067" stroke-miterlimit="10"/>
</g>
<g id="Group_27">
<path id="Vector_30" d="M251.221 264.915C250.906 264.617 251.556 262.223 253.387 260.261C255.228 258.304 256.207 256.56 256.527 256.858C256.842 257.153 256.381 259.367 254.532 261.334C252.69 263.305 251.533 265.213 251.221 264.915Z" fill="white" stroke="white" stroke-width="0.4067" stroke-miterlimit="10"/>
</g>
<g id="Group_28">
<path id="Vector_31" d="M243.223 273.038C242.915 272.732 243.631 270.355 245.514 268.444C247.407 266.537 248.432 264.82 248.745 265.128C249.053 265.429 248.531 267.632 246.628 269.548C244.735 271.469 243.527 273.344 243.223 273.038Z" fill="white" stroke="white" stroke-width="0.4067" stroke-miterlimit="10"/>
</g>
<g id="Group_29">
<path id="Vector_32" d="M235.009 280.942C234.71 280.629 235.49 278.271 237.423 276.412C239.367 274.558 240.439 272.869 240.742 273.184C241.042 273.493 240.461 275.679 238.507 277.543C236.563 279.414 235.305 281.257 235.009 280.942Z" fill="white" stroke="white" stroke-width="0.4067" stroke-miterlimit="10"/>
</g>
<g id="Group_30">
<path id="Vector_33" d="M226.584 288.622C226.294 288.299 227.138 285.965 229.119 284.158C231.113 282.355 232.23 280.697 232.524 281.02C232.815 281.338 232.176 283.508 230.172 285.32C228.179 287.135 226.872 288.944 226.584 288.622Z" fill="white" stroke="white" stroke-width="0.4067" stroke-miterlimit="10"/>
</g>
<g id="Group_31">
<path id="Vector_34" d="M217.954 296.069C217.673 295.74 218.58 293.427 220.61 291.675C222.651 289.928 223.812 288.3 224.099 288.631C224.38 288.957 223.683 291.11 221.631 292.864C219.589 294.626 218.234 296.398 217.954 296.069Z" fill="white" stroke="white" stroke-width="0.4067" stroke-miterlimit="10"/>
</g>
<g id="Group_32">
<path id="Vector_35" d="M209.124 303.278C208.852 302.941 209.82 300.654 211.899 298.959C213.987 297.268 215.193 295.673 215.469 296.012C215.741 296.345 214.987 298.479 212.887 300.176C210.799 301.882 209.395 303.614 209.124 303.278Z" fill="white" stroke="white" stroke-width="0.4067" stroke-miterlimit="10"/>
</g>
<g id="Group_33">
<path id="Vector_36" d="M200.098 310.239C199.835 309.893 200.867 307.636 202.993 305.999C205.126 304.368 206.376 302.805 206.643 303.151C206.906 303.492 206.092 305.603 203.947 307.244C201.81 308.89 200.358 310.584 200.098 310.239Z" fill="white" stroke="white" stroke-width="0.4067" stroke-miterlimit="10"/>
</g>
<g id="Group_34">
<path id="Vector_37" d="M190.88 316.944C190.626 316.592 191.722 314.364 193.891 312.787C196.071 311.218 197.364 309.69 197.621 310.044C197.874 310.393 197.001 312.48 194.81 314.059C192.628 315.645 191.13 317.296 190.88 316.944Z" fill="white" stroke="white" stroke-width="0.4067" stroke-miterlimit="10"/>
</g>
<g id="Group_35">
<path id="Vector_38" d="M181.472 323.384C181.229 323.025 182.389 320.829 184.601 319.316C186.825 317.808 188.161 316.319 188.407 316.68C188.651 317.035 187.72 319.095 185.483 320.611C183.259 322.135 181.713 323.742 181.472 323.384Z" fill="white" stroke="white" stroke-width="0.4067" stroke-miterlimit="10"/>
</g>
<g id="Group_36">
<path id="Vector_39" d="M171.88 329.545C171.648 329.177 172.872 327.019 175.128 325.569C177.395 324.128 178.773 322.677 179.01 323.047C179.243 323.409 178.252 325.443 175.972 326.892C173.703 328.349 172.11 329.909 171.88 329.545Z" fill="white" stroke="white" stroke-width="0.4067" stroke-miterlimit="10"/>
</g>
<g id="Group_37">
<path id="Vector_40" d="M162.107 335.414C161.886 335.04 163.175 332.92 165.474 331.539C167.783 330.167 169.203 328.759 169.43 329.135C169.651 329.504 168.6 331.505 166.278 332.887C163.965 334.273 162.326 335.786 162.107 335.414Z" fill="white" stroke="white" stroke-width="0.4067" stroke-miterlimit="10"/>
</g>
<g id="Group_38">
<path id="Vector_41" d="M152.156 340.978C151.948 340.6 153.301 338.515 155.646 337.216C157.99 335.906 159.457 334.548 159.67 334.93C159.881 335.307 158.766 337.271 156.408 338.588C154.048 339.895 152.364 341.357 152.156 340.978Z" fill="white" stroke="white" stroke-width="0.4067" stroke-miterlimit="10"/>
</g>
<g id="Group_39">
<path id="Vector_42" d="M142.032 346.222C141.836 345.833 143.256 343.797 145.641 342.575C148.026 341.341 149.534 340.03 149.736 340.418C149.935 340.802 148.758 342.729 146.359 343.971C143.958 345.2 142.227 346.606 142.032 346.222Z" fill="white" stroke="white" stroke-width="0.4067" stroke-miterlimit="10"/>
</g>
<g id="Group_40">
<path id="Vector_43" d="M131.737 351.123C131.553 350.73 133.042 348.741 135.467 347.601C137.891 346.447 139.443 345.186 139.631 345.58C139.817 345.97 138.577 347.857 136.138 349.018C133.697 350.168 131.919 351.515 131.737 351.123Z" fill="white" stroke="white" stroke-width="0.4067" stroke-miterlimit="10"/>
</g>
<g id="Group_41">
<path id="Vector_44" d="M126.152 351.829C128.616 350.756 130.21 349.551 130.384 349.951C130.556 350.347 129.25 352.19 126.777 353.269C124.305 354.343 123.691 352.9 126.152 351.829Z" fill="white" stroke="white" stroke-width="0.4067" stroke-miterlimit="10"/>
</g>
</g>
<g id="Group_42">
<g id="Group_43">
<path id="Vector_45" d="M339.087 101.168C338.668 101.053 338.123 98.629 338.834 96.041C339.049 95.308 339.607 94.691 340.028 94.807C340.445 94.921 340.673 94.861 340.346 96.456C339.632 99.057 339.502 101.283 339.087 101.168Z" fill="white" stroke="white" stroke-width="0.4067" stroke-miterlimit="10"/>
</g>
<g id="Group_44">
<path id="Vector_46" d="M336.103 110.832C335.69 110.702 335.228 108.261 336.024 105.701C336.809 103.132 336.926 101.135 337.343 101.262C337.755 101.388 338.312 103.577 337.521 106.162C336.722 108.741 336.514 110.962 336.103 110.832Z" fill="white" stroke="white" stroke-width="0.4067" stroke-miterlimit="10"/>
</g>
<g id="Group_45">
<path id="Vector_47" d="M332.43 121.54C332.022 121.395 331.642 118.94 332.523 116.407C333.395 113.867 333.581 111.876 333.994 112.016C334.402 112.156 334.884 114.364 334.005 116.92C333.116 119.47 332.836 121.683 332.43 121.54Z" fill="white" stroke="white" stroke-width="0.4067" stroke-miterlimit="10"/>
</g>
<g id="Group_46">
<path id="Vector_48" d="M328.403 132.118C328 131.962 327.701 129.495 328.665 126.992C329.622 124.482 329.872 122.498 330.28 122.652C330.683 122.805 331.092 125.028 330.129 127.553C329.158 130.072 328.806 132.276 328.403 132.118Z" fill="white" stroke="white" stroke-width="0.4067" stroke-miterlimit="10"/>
</g>
<g id="Group_47">
<path id="Vector_49" d="M324.039 142.559C323.641 142.388 323.422 139.913 324.467 137.444C325.503 134.965 325.818 132.991 326.222 133.159C326.618 133.324 326.954 135.559 325.911 138.053C324.86 140.537 324.437 142.729 324.039 142.559Z" fill="white" stroke="white" stroke-width="0.4067" stroke-miterlimit="10"/>
</g>
<g id="Group_48">
<path id="Vector_50" d="M319.35 152.852C318.958 152.67 318.816 150.19 319.938 147.753C321.052 145.309 321.428 143.345 321.828 143.525C322.22 143.703 322.484 145.947 321.362 148.407C320.233 150.857 319.741 153.035 319.35 152.852Z" fill="white" stroke="white" stroke-width="0.4067" stroke-miterlimit="10"/>
</g>
<g id="Group_49">
<path id="Vector_51" d="M314.35 162.992C313.962 162.797 313.899 160.315 315.085 157.909C316.285 155.506 316.717 153.552 317.111 153.745C317.495 153.935 317.695 156.188 316.489 158.607C315.296 161.026 314.734 163.186 314.35 162.992Z" fill="white" stroke="white" stroke-width="0.4067" stroke-miterlimit="10"/>
</g>
<g id="Group_50">
<path id="Vector_52" d="M309.045 172.978C308.663 172.772 308.673 170.29 309.933 167.92C311.204 165.553 311.696 163.613 312.082 163.817C312.462 164.019 312.593 166.278 311.314 168.659C310.048 171.042 309.425 173.183 309.045 172.978Z" fill="white" stroke="white" stroke-width="0.4067" stroke-miterlimit="10"/>
</g>
<g id="Group_51">
<path id="Vector_53" d="M303.447 182.804C303.072 182.587 303.154 180.106 304.482 177.776C305.823 175.446 306.372 173.523 306.753 173.739C307.126 173.951 307.191 176.214 305.843 178.555C304.508 180.898 303.821 183.021 303.447 182.804Z" fill="white" stroke="white" stroke-width="0.4067" stroke-miterlimit="10"/>
</g>
<g id="Group_52">
<path id="Vector_54" d="M297.57 192.466C297.201 192.237 297.354 189.761 298.749 187.469C300.156 185.179 300.761 183.273 301.134 183.498C301.503 183.724 301.501 185.985 300.086 188.288C298.685 190.592 297.936 192.693 297.57 192.466Z" fill="white" stroke="white" stroke-width="0.4067" stroke-miterlimit="10"/>
</g>
<g id="Group_53">
<path id="Vector_55" d="M291.421 201.959C291.059 201.721 291.281 199.249 292.738 196.997C294.211 194.748 294.869 192.858 295.236 193.096C295.596 193.33 295.532 195.592 294.053 197.854C292.587 200.117 291.779 202.196 291.421 201.959Z" fill="white" stroke="white" stroke-width="0.4067" stroke-miterlimit="10"/>
</g>
<g id="Group_54">
<path id="Vector_56" d="M285.008 211.279C284.653 211.03 284.944 208.564 286.464 206.355C287.998 204.147 288.708 202.277 289.069 202.525C289.423 202.769 289.295 205.028 287.754 207.247C286.226 209.469 285.361 211.526 285.008 211.279Z" fill="white" stroke="white" stroke-width="0.4067" stroke-miterlimit="10"/>
</g>
<g id="Group_55">
<path id="Vector_57" d="M278.345 220.419C277.996 220.162 278.354 217.704 279.935 215.537C281.527 213.373 282.289 211.522 282.643 211.781C282.991 212.033 282.799 214.288 281.2 216.464C279.61 218.644 278.691 220.677 278.345 220.419Z" fill="white" stroke="white" stroke-width="0.4067" stroke-miterlimit="10"/>
</g>
<g id="Group_56">
<path id="Vector_58" d="M271.438 229.378C271.096 229.111 271.518 226.665 273.157 224.539C274.807 222.419 275.617 220.59 275.966 220.857C276.306 221.12 276.055 223.369 274.398 225.501C272.75 227.636 271.777 229.644 271.438 229.378Z" fill="white" stroke="white" stroke-width="0.4067" stroke-miterlimit="10"/>
</g>
<g id="Group_57">
<path id="Vector_59" d="M264.297 238.151C263.963 237.875 264.448 235.44 266.144 233.361C267.848 231.283 268.707 229.477 269.047 229.753C269.381 230.024 269.071 232.265 267.358 234.354C265.654 236.444 264.629 238.426 264.297 238.151Z" fill="white" stroke="white" stroke-width="0.4067" stroke-miterlimit="10"/>
</g>
<g id="Group_58">
<path id="Vector_60" d="M256.929 246.735C256.601 246.45 257.151 244.03 258.904 241.999C260.656 239.96 261.564 238.181 261.896 238.466C262.222 238.746 261.852 240.976 260.09 243.024C258.329 245.064 257.253 247.02 256.929 246.735Z" fill="white" stroke="white" stroke-width="0.4067" stroke-miterlimit="10"/>
</g>
<g id="Group_59">
<path id="Vector_61" d="M249.331 255.121C249.011 254.828 249.628 252.423 251.429 250.435C253.242 248.451 254.194 246.693 254.52 246.986C254.838 247.275 254.411 249.496 252.588 251.491C250.777 253.49 249.648 255.413 249.331 255.121Z" fill="white" stroke="white" stroke-width="0.4067" stroke-miterlimit="10"/>
</g>
<g id="Group_60">
<path id="Vector_62" d="M241.512 263.297C241.2 262.994 241.88 260.608 243.736 258.669C245.601 256.735 246.601 255.003 246.918 255.306C247.231 255.604 246.741 257.813 244.866 259.756C243.001 261.705 241.82 263.598 241.512 263.297Z" fill="white" stroke="white" stroke-width="0.4067" stroke-miterlimit="10"/>
</g>
<g id="Group_61">
<path id="Vector_63" d="M233.473 271.257C233.17 270.946 233.916 268.578 235.822 266.691C237.74 264.808 238.787 263.104 239.095 263.417C239.398 263.723 238.85 265.917 236.922 267.809C235.006 269.705 233.774 271.565 233.473 271.257Z" fill="white" stroke="white" stroke-width="0.4067" stroke-miterlimit="10"/>
</g>
<g id="Group_62">
<path id="Vector_64" d="M225.22 278.993C224.926 278.675 225.736 276.328 227.694 274.494C229.661 272.665 230.755 270.989 231.053 271.308C231.348 271.621 230.741 273.801 228.763 275.64C226.794 277.485 225.513 279.312 225.22 278.993Z" fill="white" stroke="white" stroke-width="0.4067" stroke-miterlimit="10"/>
</g>
<g id="Group_63">
<path id="Vector_65" d="M216.758 286.502C216.474 286.176 217.347 283.853 219.354 282.072C221.372 280.297 222.509 278.652 222.8 278.98C223.087 279.301 222.419 281.463 220.392 283.247C218.374 285.037 217.043 286.826 216.758 286.502Z" fill="white" stroke="white" stroke-width="0.4067" stroke-miterlimit="10"/>
</g>
<g id="Group_64">
<path id="Vector_66" d="M208.091 293.771C207.816 293.436 208.754 291.138 210.808 289.416C212.875 287.697 214.059 286.085 214.34 286.421C214.617 286.75 213.891 288.894 211.813 290.619C209.748 292.353 208.366 294.104 208.091 293.771Z" fill="white" stroke="white" stroke-width="0.4067" stroke-miterlimit="10"/>
</g>
<g id="Group_65">
<path id="Vector_67" d="M199.224 300.795C198.957 300.453 199.96 298.184 202.062 296.518C204.176 294.86 205.404 293.281 205.676 293.624C205.944 293.961 205.157 296.082 203.033 297.749C200.919 299.424 199.488 301.136 199.224 300.795Z" fill="white" stroke="white" stroke-width="0.4067" stroke-miterlimit="10"/>
</g>
<g id="Group_66">
<path id="Vector_68" d="M190.159 307.563C189.901 307.213 190.97 304.972 193.119 303.368C195.279 301.77 196.551 300.228 196.813 300.58C197.07 300.923 196.225 303.021 194.053 304.628C191.893 306.241 190.414 307.911 190.159 307.563Z" fill="white" stroke="white" stroke-width="0.4067" stroke-miterlimit="10"/>
</g>
<g id="Group_67">
<path id="Vector_69" d="M180.901 314.065C180.654 313.709 181.787 311.5 183.982 309.959C186.186 308.426 187.504 306.919 187.756 307.277C188.003 307.629 187.098 309.702 184.879 311.244C182.673 312.795 181.146 314.422 180.901 314.065Z" fill="white" stroke="white" stroke-width="0.4067" stroke-miterlimit="10"/>
</g>
<g id="Group_68">
<path id="Vector_70" d="M171.454 320.291C171.218 319.927 172.416 317.752 174.656 316.277C176.906 314.809 178.265 313.342 178.508 313.709C178.745 314.068 177.779 316.113 175.516 317.589C173.263 319.073 171.688 320.652 171.454 320.291Z" fill="white" stroke="white" stroke-width="0.4067" stroke-miterlimit="10"/>
</g>
<g id="Group_69">
<path id="Vector_71" d="M161.822 326.225C161.596 325.853 162.862 323.718 165.145 322.312C167.438 320.914 168.842 319.49 169.073 319.862C169.299 320.228 168.271 322.244 165.964 323.651C163.667 325.064 162.045 326.594 161.822 326.225Z" fill="white" stroke="white" stroke-width="0.4067" stroke-miterlimit="10"/>
</g>
<g id="Group_70">
<path id="Vector_72" d="M152.009 331.855C151.796 331.478 153.126 329.379 155.456 328.055C157.786 326.718 159.236 325.344 159.455 325.722C159.669 326.096 158.578 328.075 156.234 329.417C153.889 330.752 152.221 332.232 152.009 331.855Z" fill="white" stroke="white" stroke-width="0.4067" stroke-miterlimit="10"/>
</g>
<g id="Group_71">
<path id="Vector_73" d="M142.019 337.167C141.819 336.784 143.216 334.729 145.588 333.481C147.959 332.22 149.452 330.893 149.658 331.279C149.861 331.66 148.706 333.6 146.32 334.869C143.934 336.125 142.218 337.551 142.019 337.167Z" fill="white" stroke="white" stroke-width="0.4067" stroke-miterlimit="10"/>
</g>
<g id="Group_72">
<path id="Vector_74" d="M131.858 342.145C131.67 341.754 133.136 339.749 135.548 338.581C137.959 337.401 139.497 336.123 139.69 336.516C139.88 336.903 138.662 338.804 136.234 339.993C133.806 341.168 132.043 342.534 131.858 342.145Z" fill="white" stroke="white" stroke-width="0.4067" stroke-miterlimit="10"/>
</g>
<g id="Group_73">
<path id="Vector_75" d="M121.529 346.768C121.355 346.371 122.89 344.418 125.341 343.334C127.792 342.238 129.372 341.013 129.551 341.411C129.727 341.806 128.445 343.665 125.978 344.767C123.51 345.858 121.702 347.164 121.529 346.768Z" fill="white" stroke="white" stroke-width="0.4067" stroke-miterlimit="10"/>
</g>
<g id="Group_74">
<path id="Vector_76" d="M115.996 347.31C118.485 346.296 120.108 345.129 120.273 345.535C120.435 345.934 119.085 347.747 116.585 348.764C113.138 350.162 112.561 348.703 115.996 347.31Z" fill="white" stroke="white" stroke-width="0.4067" stroke-miterlimit="10"/>
</g>
</g>
<g id="Group_75">
<g id="Group_76">
<path id="Vector_77" d="M96.481 342.401C97.245 342.134 98.009 341.863 98.772 341.589" stroke="white" stroke-width="1.6211" stroke-linecap="round" stroke-linejoin="round"/>
<path id="Vector_78" d="M104.913 339.307C156.653 319.414 207.089 283.383 248.549 235.8C288.703 189.715 316.959 137.094 330.214 84.53" stroke="white" stroke-width="1.6211" stroke-linecap="round" stroke-linejoin="round" stroke-dasharray="4.91 6.55"/>
<path id="Vector_79" d="M330.998 81.345C331.188 80.556 331.375 79.768 331.558 78.979" stroke="white" stroke-width="1.6211" stroke-linecap="round" stroke-linejoin="round"/>
</g>
</g>
<g id="Group_77">
<g id="Group_78">
<path id="Vector_80" d="M60.836 299.085C60.937 299.501 59.116 301.188 56.494 301.826C53.869 302.461 50.755 303.897 50.654 303.476C50.552 303.053 53.515 300.932 56.125 300.3C58.728 299.667 60.732 298.66 60.836 299.085Z" fill="white" stroke="white" stroke-width="0.4067" stroke-miterlimit="10"/>
</g>
<g id="Group_79">
<path id="Vector_81" d="M70.391 296.273C70.515 296.685 68.783 298.461 66.191 299.23C63.592 299.982 61.851 300.937 61.733 300.521C61.613 300.102 63.178 298.469 65.751 297.724C68.317 296.964 70.264 295.857 70.391 296.273Z" fill="white" stroke="white" stroke-width="0.4067" stroke-miterlimit="10"/>
</g>
<g id="Group_80">
<path id="Vector_82" d="M80.934 292.651C81.078 293.056 79.433 294.915 76.883 295.809C74.325 296.688 72.633 297.728 72.494 297.318C72.354 296.907 73.834 295.198 76.37 294.327C78.896 293.441 80.787 292.241 80.934 292.651Z" fill="white" stroke="white" stroke-width="0.4067" stroke-miterlimit="10"/>
</g>
<g id="Group_81">
<path id="Vector_83" d="M91.302 288.545C91.464 288.944 89.906 290.874 87.399 291.883C84.885 292.88 83.243 293.999 83.085 293.596C82.926 293.19 84.326 291.414 86.817 290.426C89.303 289.426 91.138 288.143 91.302 288.545Z" fill="white" stroke="white" stroke-width="0.4067" stroke-miterlimit="10"/>
</g>
<g id="Group_82">
<path id="Vector_84" d="M101.486 283.988C101.665 284.38 100.189 286.375 97.73 287.491C95.262 288.595 93.671 289.786 93.495 289.39C93.318 288.993 94.638 287.156 97.086 286.061C99.525 284.954 101.304 283.594 101.486 283.988Z" fill="white" stroke="white" stroke-width="0.4067" stroke-miterlimit="10"/>
</g>
<g id="Group_83">
<path id="Vector_85" d="M111.477 279.016C111.672 279.399 110.278 281.454 107.867 282.668C105.448 283.873 103.908 285.13 103.715 284.74C103.522 284.35 104.764 282.462 107.165 281.264C109.557 280.06 111.28 278.627 111.477 279.016Z" fill="white" stroke="white" stroke-width="0.4067" stroke-miterlimit="10"/>
</g>
<g id="Group_84">
<path id="Vector_86" d="M121.268 273.653C121.478 274.028 120.164 276.132 117.802 277.442C115.431 278.741 113.942 280.057 113.735 279.677C113.527 279.295 114.693 277.357 117.046 276.068C119.389 274.77 121.055 273.272 121.268 273.653Z" fill="white" stroke="white" stroke-width="0.4067" stroke-miterlimit="10"/>
</g>
<g id="Group_85">
<path id="Vector_87" d="M130.851 267.925C131.075 268.292 129.839 270.445 127.528 271.841C125.209 273.227 123.771 274.6 123.549 274.227C123.327 273.853 124.419 271.873 126.722 270.497C129.016 269.109 130.625 267.554 130.851 267.925Z" fill="white" stroke="white" stroke-width="0.4067" stroke-miterlimit="10"/>
</g>
<g id="Group_86">
<path id="Vector_88" d="M140.222 261.855C140.458 262.214 139.3 264.41 137.04 265.887C134.772 267.357 133.384 268.781 133.149 268.416C132.914 268.05 133.933 266.031 136.185 264.572C138.43 263.105 139.982 261.493 140.222 261.855Z" fill="white" stroke="white" stroke-width="0.4067" stroke-miterlimit="10"/>
</g>
<g id="Group_87">
<path id="Vector_89" d="M149.369 255.469C149.618 255.821 148.536 258.053 146.329 259.609C144.114 261.156 142.776 262.628 142.529 262.271C142.282 261.914 143.229 259.861 145.43 258.325C147.622 256.778 149.117 255.113 149.369 255.469Z" fill="white" stroke="white" stroke-width="0.4067" stroke-miterlimit="10"/>
</g>
<g id="Group_88">
<path id="Vector_90" d="M158.3 248.771C158.56 249.115 157.554 251.383 155.401 253.011C153.24 254.632 151.953 256.15 151.694 255.801C151.434 255.452 152.311 253.368 154.459 251.758C156.597 250.139 158.036 248.426 158.3 248.771Z" fill="white" stroke="white" stroke-width="0.4067" stroke-miterlimit="10"/>
</g>
<g id="Group_89">
<path id="Vector_91" d="M167.007 241.781C167.278 242.116 166.349 244.419 164.244 246.108C162.145 247.809 160.905 249.363 160.636 249.025C160.364 248.685 161.176 246.577 163.261 244.885C165.352 243.207 166.732 241.444 167.007 241.781Z" fill="white" stroke="white" stroke-width="0.4067" stroke-miterlimit="10"/>
</g>
<g id="Group_90">
<path id="Vector_92" d="M175.486 234.513C175.769 234.837 174.913 237.168 172.864 238.926C170.821 240.694 169.633 242.287 169.352 241.957C169.069 241.627 169.811 239.493 171.842 237.737C173.878 235.99 175.201 234.185 175.486 234.513Z" fill="white" stroke="white" stroke-width="0.4067" stroke-miterlimit="10"/>
</g>
<g id="Group_91">
<path id="Vector_93" d="M183.731 226.976C184.024 227.29 183.242 229.649 181.25 231.47C179.265 233.303 178.128 234.932 177.836 234.613C177.544 234.292 178.217 232.135 180.191 230.314C182.171 228.504 183.436 226.657 183.731 226.976Z" fill="white" stroke="white" stroke-width="0.4067" stroke-miterlimit="10"/>
</g>
<g id="Group_92">
<path id="Vector_94" d="M191.737 219.182C192.039 219.49 191.332 221.87 189.398 223.752C187.47 225.647 186.384 227.312 186.085 227.001C185.78 226.688 186.387 224.513 188.303 222.63C190.225 220.759 191.432 218.873 191.737 219.182Z" fill="white" stroke="white" stroke-width="0.4067" stroke-miterlimit="10"/>
</g>
<g id="Group_93">
<path id="Vector_95" d="M199.496 211.143C199.808 211.441 199.175 213.842 197.301 215.784C195.434 217.736 194.401 219.436 194.091 219.135C193.778 218.831 194.316 216.638 196.171 214.697C198.034 212.766 199.182 210.844 199.496 211.143Z" fill="white" stroke="white" stroke-width="0.4067" stroke-miterlimit="10"/>
</g>
<g id="Group_94">
<path id="Vector_96" d="M207.002 202.867C207.323 203.154 206.765 205.576 204.951 207.574C203.145 209.584 202.166 211.313 201.847 211.022C201.524 210.729 201.993 208.519 203.788 206.523C205.591 204.535 206.678 202.578 207.002 202.867Z" fill="white" stroke="white" stroke-width="0.4067" stroke-miterlimit="10"/>
</g>
<g id="Group_95">
<path id="Vector_97" d="M214.251 194.366C214.581 194.643 214.095 197.079 212.345 199.133C210.601 201.197 209.675 202.956 209.346 202.675C209.015 202.391 209.417 200.169 211.15 198.116C212.891 196.075 213.919 194.086 214.251 194.366Z" fill="white" stroke="white" stroke-width="0.4067" stroke-miterlimit="10"/>
</g>
<g id="Group_96">
<path id="Vector_98" d="M221.243 185.646C221.58 185.914 221.17 188.363 219.481 190.468C217.8 192.583 216.927 194.37 216.59 194.099C216.251 193.826 216.585 191.592 218.256 189.49C219.935 187.396 220.902 185.377 221.243 185.646Z" fill="white" stroke="white" stroke-width="0.4067" stroke-miterlimit="10"/>
</g>
<g id="Group_97">
<path id="Vector_99" d="M227.966 176.718C228.311 176.975 227.975 179.436 226.352 181.592C224.736 183.758 223.919 185.571 223.575 185.309C223.226 185.046 223.492 182.804 225.098 180.651C226.711 178.508 227.615 176.459 227.966 176.718Z" fill="white" stroke="white" stroke-width="0.4067" stroke-miterlimit="10"/>
</g>
<g id="Group_98">
<path id="Vector_100" d="M234.404 167.585C234.758 167.83 234.5 170.301 232.944 172.507C231.397 174.723 230.636 176.559 230.284 176.309C229.928 176.057 230.124 173.807 231.662 171.605C233.208 169.412 234.049 167.336 234.404 167.585Z" fill="white" stroke="white" stroke-width="0.4067" stroke-miterlimit="10"/>
</g>
<g id="Group_99">
<path id="Vector_101" d="M240.553 158.252C240.913 158.486 240.732 160.962 239.257 163.222C237.769 165.479 237.071 167.342 236.71 167.103C236.348 166.864 236.468 164.605 237.944 162.362C239.412 160.115 240.188 158.015 240.553 158.252Z" fill="white" stroke="white" stroke-width="0.4067" stroke-miterlimit="10"/>
</g>
<g id="Group_100">
<path id="Vector_102" d="M246.394 148.725C246.763 148.948 246.662 151.428 245.261 153.735C243.848 156.04 243.21 157.924 242.841 157.696C242.471 157.468 242.519 155.208 243.922 152.919C245.314 150.625 246.021 148.501 246.394 148.725Z" fill="white" stroke="white" stroke-width="0.4067" stroke-miterlimit="10"/>
</g>
<g id="Group_101">
<path id="Vector_103" d="M251.917 139.009C252.292 139.22 252.274 141.701 250.949 144.055C249.614 146.406 249.04 148.31 248.663 148.095C248.286 147.879 248.26 145.617 249.586 143.282C250.9 140.944 251.537 138.798 251.917 139.009Z" fill="white" stroke="white" stroke-width="0.4067" stroke-miterlimit="10"/>
</g>
<g id="Group_102">
<path id="Vector_104" d="M257.103 129.111C257.486 129.309 257.554 131.79 256.31 134.187C255.057 136.582 254.545 138.505 254.163 138.302C253.778 138.099 253.674 135.84 254.921 133.461C256.154 131.081 256.716 128.914 257.103 129.111Z" fill="white" stroke="white" stroke-width="0.4067" stroke-miterlimit="10"/>
</g>
<g id="Group_103">
<path id="Vector_105" d="M261.937 119.039C262.327 119.222 262.483 121.699 261.325 124.14C260.156 126.578 259.715 128.516 259.323 128.328C258.932 128.14 258.749 125.886 259.911 123.465C261.061 121.041 261.543 118.854 261.937 119.039Z" fill="white" stroke="white" stroke-width="0.4067" stroke-miterlimit="10"/>
</g>
<g id="Group_104">
<path id="Vector_106" d="M266.401 108.797C266.797 108.967 267.045 111.437 265.977 113.917C264.896 116.396 264.524 118.35 264.126 118.175C263.729 118.001 263.465 115.754 264.538 113.293C265.599 110.83 266.001 108.627 266.401 108.797Z" fill="white" stroke="white" stroke-width="0.4067" stroke-miterlimit="10"/>
</g>
<g id="Group_105">
<path id="Vector_107" d="M270.477 98.395C270.878 98.55 271.22 101.008 270.248 103.529C269.262 106.047 268.963 108.013 268.56 107.854C268.156 107.694 267.808 105.458 268.786 102.959C269.751 100.458 270.069 98.24 270.477 98.395Z" fill="white" stroke="white" stroke-width="0.4067" stroke-miterlimit="10"/>
</g>
<g id="Group_106">
<path id="Vector_108" d="M274.138 87.843C274.546 87.981 274.985 90.423 274.113 92.981C273.225 95.537 273.004 97.512 272.595 97.37C272.184 97.226 271.75 95.007 272.63 92.471C273.497 89.933 273.727 87.704 274.138 87.843Z" fill="white" stroke="white" stroke-width="0.4067" stroke-miterlimit="10"/>
</g>
<g id="Group_107">
<path id="Vector_109" d="M277.365 77.15C277.777 77.271 278.319 79.693 277.552 82.285C276.77 84.875 276.629 86.858 276.214 86.731C275.798 86.605 275.275 84.405 276.05 81.835C276.811 79.266 276.947 77.029 277.365 77.15Z" fill="white" stroke="white" stroke-width="0.4067" stroke-miterlimit="10"/>
</g>
<g id="Group_108">
<path id="Vector_110" d="M280.069 66.333C280.485 66.432 281.159 68.822 280.525 71.451C279.875 74.085 279.811 76.067 279.395 75.961C278.97 75.853 278.361 73.678 279.002 71.079C279.631 68.477 279.644 66.233 280.069 66.333Z" fill="white" stroke="white" stroke-width="0.4067" stroke-miterlimit="10"/>
</g>
<g id="Group_109">
<path id="Vector_111" d="M282.342 55.393C282.765 55.478 283.5 57.849 282.959 60.492C282.411 63.137 282.451 65.128 282.026 65.038C281.601 64.95 280.878 62.808 281.423 60.176C281.962 57.544 281.916 55.307 282.342 55.393Z" fill="white" stroke="white" stroke-width="0.4067" stroke-miterlimit="10"/>
</g>
<g id="Group_110">
<path id="Vector_112" d="M284.372 44.391C284.796 44.467 285.583 46.822 285.1 49.475C284.612 52.131 284.699 54.121 284.271 54.041C283.844 53.962 283.072 51.836 283.559 49.192C284.04 46.55 283.945 44.314 284.372 44.391Z" fill="white" stroke="white" stroke-width="0.4067" stroke-miterlimit="10"/>
</g>
<g id="Group_111">
<path id="Vector_113" d="M285.961 34.417C286.385 34.483 287.232 36.815 286.817 39.481C286.389 42.148 286.529 44.133 286.1 44.065C285.67 43.997 284.843 41.892 285.267 39.236C285.681 36.586 285.53 34.349 285.961 34.417Z" fill="white" stroke="white" stroke-width="0.4067" stroke-miterlimit="10"/>
</g>
</g>
<g id="Group_112">
<g id="Group_113">
<path id="Vector_114" d="M62.705 306.977C62.807 307.393 60.985 309.079 58.363 309.716C53.716 310.841 53.362 309.313 57.993 308.192C60.597 307.558 62.601 306.552 62.705 306.977Z" fill="white" stroke="white" stroke-width="0.4067" stroke-miterlimit="10"/>
</g>
<g id="Group_114">
<path id="Vector_115" d="M72.382 304.145C72.506 304.558 70.771 306.333 68.178 307.097C65.579 307.846 63.837 308.799 63.719 308.383C63.599 307.965 65.165 306.332 67.74 305.591C70.307 304.832 72.256 303.729 72.382 304.145Z" fill="white" stroke="white" stroke-width="0.4067" stroke-miterlimit="10"/>
</g>
<g id="Group_115">
<path id="Vector_116" d="M83.08 300.497C83.223 300.902 81.574 302.757 79.021 303.644C76.462 304.518 74.768 305.557 74.63 305.147C74.49 304.733 75.974 303.028 78.511 302.162C81.04 301.281 82.934 300.087 83.08 300.497Z" fill="white" stroke="white" stroke-width="0.4067" stroke-miterlimit="10"/>
</g>
<g id="Group_116">
<path id="Vector_117" d="M93.604 296.363C93.766 296.762 92.201 298.688 89.691 299.689C87.175 300.679 85.53 301.795 85.373 301.39C85.215 300.986 86.619 299.212 89.113 298.23C91.602 297.238 93.441 295.96 93.604 296.363Z" fill="white" stroke="white" stroke-width="0.4067" stroke-miterlimit="10"/>
</g>
<g id="Group_117">
<path id="Vector_118" d="M103.946 291.78C104.124 292.173 102.641 294.162 100.178 295.269C97.706 296.367 96.112 297.552 95.938 297.155C95.763 296.758 97.088 294.926 99.539 293.838C101.982 292.738 103.766 291.385 103.946 291.78Z" fill="white" stroke="white" stroke-width="0.4067" stroke-miterlimit="10"/>
</g>
<g id="Group_118">
<path id="Vector_119" d="M114.096 286.779C114.29 287.164 112.887 289.21 110.471 290.417C108.046 291.612 106.502 292.863 106.311 292.474C106.12 292.083 107.368 290.199 109.774 289.012C112.172 287.814 113.899 286.391 114.096 286.779Z" fill="white" stroke="white" stroke-width="0.4067" stroke-miterlimit="10"/>
</g>
<g id="Group_119">
<path id="Vector_120" d="M124.046 281.385C124.254 281.762 122.931 283.862 120.564 285.16C118.189 286.449 116.693 287.759 116.488 287.378C116.281 286.994 117.455 285.063 119.814 283.782C122.163 282.493 123.835 281.005 124.046 281.385Z" fill="white" stroke="white" stroke-width="0.4067" stroke-miterlimit="10"/>
</g>
<g id="Group_120">
<path id="Vector_121" d="M133.791 275.625C134.013 275.994 132.768 278.14 130.45 279.525C128.125 280.901 126.679 282.266 126.46 281.893C126.239 281.519 127.34 279.542 129.649 278.175C131.95 276.802 133.566 275.253 133.791 275.625Z" fill="white" stroke="white" stroke-width="0.4067" stroke-miterlimit="10"/>
</g>
<g id="Group_121">
<path id="Vector_122" d="M143.322 269.521C143.557 269.882 142.387 272.071 140.12 273.538C137.845 274.995 136.451 276.414 136.218 276.047C135.985 275.681 137.012 273.667 139.272 272.219C141.523 270.761 143.085 269.156 143.322 269.521Z" fill="white" stroke="white" stroke-width="0.4067" stroke-miterlimit="10"/>
</g>
<g id="Group_122">
<path id="Vector_123" d="M152.631 263.094C152.878 263.448 151.783 265.674 149.569 267.218C147.346 268.754 146.001 270.22 145.755 269.862C145.509 269.505 146.467 267.455 148.676 265.929C150.876 264.396 152.381 262.739 152.631 263.094Z" fill="white" stroke="white" stroke-width="0.4067" stroke-miterlimit="10"/>
</g>
<g id="Group_123">
<path id="Vector_124" d="M161.724 256.356C161.983 256.7 160.963 258.963 158.802 260.579C156.632 262.189 155.337 263.699 155.079 263.349C154.821 263.001 155.709 260.921 157.866 259.322C160.013 257.716 161.461 256.009 161.724 256.356Z" fill="white" stroke="white" stroke-width="0.4067" stroke-miterlimit="10"/>
</g>
<g id="Group_124">
<path id="Vector_125" d="M170.593 249.322C170.863 249.657 169.92 251.954 167.805 253.633C165.696 255.321 164.448 256.868 164.18 256.529C163.91 256.187 164.733 254.084 166.828 252.405C168.929 250.737 170.32 248.983 170.593 249.322Z" fill="white" stroke="white" stroke-width="0.4067" stroke-miterlimit="10"/>
</g>
<g id="Group_125">
<path id="Vector_126" d="M179.234 242.004C179.514 242.331 178.645 244.658 176.586 246.401C174.533 248.158 173.335 249.745 173.056 249.414C172.775 249.08 173.529 246.951 175.571 245.206C177.617 243.473 178.951 241.674 179.234 242.004Z" fill="white" stroke="white" stroke-width="0.4067" stroke-miterlimit="10"/>
</g>
<g id="Group_126">
<path id="Vector_127" d="M187.642 234.416C187.932 234.734 187.136 237.086 185.132 238.895C183.137 240.714 181.989 242.339 181.699 242.016C181.408 241.694 182.095 239.541 184.079 237.733C186.07 235.935 187.348 234.096 187.642 234.416Z" fill="white" stroke="white" stroke-width="0.4067" stroke-miterlimit="10"/>
</g>
<g id="Group_127">
<path id="Vector_128" d="M195.809 226.568C196.109 226.876 195.387 229.253 193.441 231.123C191.502 233.003 190.405 234.663 190.108 234.351C189.805 234.036 190.424 231.865 192.352 229.995C194.287 228.135 195.505 226.256 195.809 226.568Z" fill="white" stroke="white" stroke-width="0.4067" stroke-miterlimit="10"/>
</g>
<g id="Group_128">
<path id="Vector_129" d="M203.729 218.469C204.038 218.769 203.388 221.166 201.502 223.095C199.622 225.037 198.579 226.729 198.271 226.426C197.959 226.12 198.511 223.93 200.38 222.001C202.256 220.083 203.416 218.168 203.729 218.469Z" fill="white" stroke="white" stroke-width="0.4067" stroke-miterlimit="10"/>
</g>
<g id="Group_129">
<path id="Vector_130" d="M211.395 210.134C211.713 210.422 211.139 212.839 209.313 214.826C207.493 216.823 206.502 218.547 206.184 218.254C205.865 217.957 206.349 215.751 208.156 213.766C209.973 211.79 211.072 209.841 211.395 210.134Z" fill="white" stroke="white" stroke-width="0.4067" stroke-miterlimit="10"/>
</g>
<g id="Group_130">
<path id="Vector_131" d="M218.813 201.553C219.14 201.832 218.638 204.265 216.88 206.313C215.114 208.357 214.181 210.114 213.853 209.831C213.526 209.546 213.937 207.322 215.692 205.289C217.44 203.253 218.481 201.271 218.813 201.553Z" fill="white" stroke="white" stroke-width="0.4067" stroke-miterlimit="10"/>
</g>
<g id="Group_131">
<path id="Vector_132" d="M225.954 192.776C226.289 193.045 225.86 195.492 224.158 197.586C222.463 199.69 221.577 201.471 221.243 201.197C220.906 200.921 221.254 198.689 222.939 196.597C224.633 194.517 225.614 192.504 225.954 192.776Z" fill="white" stroke="white" stroke-width="0.4067" stroke-miterlimit="10"/>
</g>
<g id="Group_132">
<path id="Vector_133" d="M232.835 183.774C233.178 184.034 232.823 186.492 231.186 188.635C229.555 190.789 228.725 192.596 228.382 192.333C228.037 192.067 228.317 189.826 229.939 187.685C231.567 185.555 232.488 183.513 232.835 183.774Z" fill="white" stroke="white" stroke-width="0.4067" stroke-miterlimit="10"/>
</g>
<g id="Group_133">
<path id="Vector_134" d="M239.437 174.565C239.789 174.814 239.51 177.282 237.939 179.476C236.374 181.68 235.6 183.51 235.249 183.257C234.896 183.003 235.108 180.755 236.662 178.564C238.225 176.384 239.081 174.314 239.437 174.565Z" fill="white" stroke="white" stroke-width="0.4067" stroke-miterlimit="10"/>
</g>
<g id="Group_134">
<path id="Vector_135" d="M245.746 165.155C246.105 165.392 245.903 167.867 244.409 170.115C242.904 172.359 242.192 174.218 241.833 173.974C241.472 173.732 241.609 171.474 243.105 169.243C244.59 167.009 245.384 164.916 245.746 165.155Z" fill="white" stroke="white" stroke-width="0.4067" stroke-miterlimit="10"/>
</g>
<g id="Group_135">
<path id="Vector_136" d="M251.754 155.548C252.119 155.775 251.997 158.254 250.574 160.549C249.143 162.841 248.49 164.721 248.123 164.489C247.755 164.258 247.821 161.997 249.244 159.719C250.657 157.438 251.383 155.321 251.754 155.548Z" fill="white" stroke="white" stroke-width="0.4067" stroke-miterlimit="10"/>
</g>
<g id="Group_136">
<path id="Vector_137" d="M257.442 145.751C257.816 145.965 257.775 148.446 256.429 150.787C255.073 153.125 254.48 155.024 254.106 154.806C253.731 154.587 253.723 152.326 255.072 150.002C256.409 147.676 257.064 145.536 257.442 145.751Z" fill="white" stroke="white" stroke-width="0.4067" stroke-miterlimit="10"/>
</g>
<g id="Group_137">
<path id="Vector_138" d="M262.801 135.769C263.181 135.97 263.224 138.453 261.957 140.837C260.681 143.219 260.152 145.137 259.77 144.931C259.387 144.724 259.305 142.464 260.574 140.098C261.832 137.729 262.416 135.567 262.801 135.769Z" fill="white" stroke="white" stroke-width="0.4067" stroke-miterlimit="10"/>
</g>
<g id="Group_138">
<path id="Vector_139" d="M267.812 125.609C268.2 125.797 268.328 128.275 267.144 130.703C265.951 133.128 265.487 135.063 265.099 134.87C264.71 134.677 264.55 132.421 265.737 130.012C266.912 127.602 267.42 125.42 267.812 125.609Z" fill="white" stroke="white" stroke-width="0.4067" stroke-miterlimit="10"/>
</g>
<g id="Group_139">
<path id="Vector_140" d="M272.457 115.278C272.852 115.452 273.07 117.924 271.974 120.393C270.866 122.859 270.472 124.809 270.077 124.629C269.681 124.449 269.442 122.201 270.544 119.752C271.63 117.302 272.059 115.104 272.457 115.278Z" fill="white" stroke="white" stroke-width="0.4067" stroke-miterlimit="10"/>
</g>
<g id="Group_140">
<path id="Vector_141" d="M276.719 104.784C277.119 104.943 277.43 107.405 276.425 109.913C275.409 112.419 275.086 114.382 274.686 114.218C274.284 114.054 273.963 111.815 274.972 109.327C275.969 106.837 276.315 104.625 276.719 104.784Z" fill="white" stroke="white" stroke-width="0.4067" stroke-miterlimit="10"/>
</g>
<g id="Group_141">
<path id="Vector_142" d="M280.579 94.137C280.984 94.281 281.389 96.729 280.482 99.275C279.561 101.817 279.314 103.791 278.906 103.641C278.498 103.493 278.093 101.267 279.008 98.743C279.908 96.218 280.169 93.993 280.579 94.137Z" fill="white" stroke="white" stroke-width="0.4067" stroke-miterlimit="10"/>
</g>
<g id="Group_142">
<path id="Vector_143" d="M284.012 83.346C284.423 83.473 284.926 85.903 284.12 88.483C283.303 91.06 283.132 93.043 282.719 92.91C282.306 92.776 281.814 90.57 282.625 88.012C283.424 85.451 283.597 83.218 284.012 83.346Z" fill="white" stroke="white" stroke-width="0.4067" stroke-miterlimit="10"/>
</g>
<g id="Group_143">
<path id="Vector_144" d="M286.991 72.426C287.404 72.534 288.021 74.944 287.314 77.552C286.608 80.164 286.516 82.15 286.1 82.034C285.679 81.919 285.099 79.733 285.8 77.142C286.502 74.557 286.567 72.314 286.991 72.426Z" fill="white" stroke="white" stroke-width="0.4067" stroke-miterlimit="10"/>
</g>
<g id="Group_144">
<path id="Vector_145" d="M289.511 61.39C289.932 61.483 290.633 63.864 290.044 66.499C289.444 69.136 289.44 71.125 289.019 71.027C288.594 70.929 287.918 68.771 288.515 66.154C289.099 63.536 289.086 61.297 289.511 61.39Z" fill="white" stroke="white" stroke-width="0.4067" stroke-miterlimit="10"/>
</g>
<g id="Group_145">
<path id="Vector_146" d="M291.623 50.261C292.047 50.338 292.837 52.691 292.347 55.348C291.843 58.005 291.913 59.993 291.488 59.911C291.06 59.829 290.305 57.698 290.805 55.06C291.292 52.422 291.196 50.185 291.623 50.261Z" fill="white" stroke="white" stroke-width="0.4067" stroke-miterlimit="10"/>
</g>
<g id="Group_146">
<path id="Vector_147" d="M293.122 40.159C293.546 40.221 294.426 42.54 294.044 45.214C293.648 47.888 293.806 49.869 293.377 49.807C292.947 49.744 292.1 47.646 292.493 44.989C292.872 42.334 292.689 40.098 293.122 40.159Z" fill="white" stroke="white" stroke-width="0.4067" stroke-miterlimit="10"/>
</g>
</g>
<g id="Group_147">
<g id="Group_148">
<path id="Vector_148" d="M304.344 47.73C304.238 48.532 304.127 49.334 304.013 50.138" stroke="white" stroke-width="1.6211" stroke-linecap="round" stroke-linejoin="round"/>
<path id="Vector_149" d="M303.021 56.498C293.873 110.58 266.161 166.235 224.121 214.482C179.125 266.124 123.098 302.757 67.703 317.342" stroke="white" stroke-width="1.6211" stroke-linecap="round" stroke-linejoin="round" stroke-dasharray="4.83 6.44"/>
<path id="Vector_150" d="M64.581 318.142C63.794 318.337 63.007 318.529 62.22 318.715C62.279 318.768 62.336 318.819 62.395 318.872" stroke="white" stroke-width="1.6211" stroke-linecap="round" stroke-linejoin="round"/>
</g>
</g>
</g>
</g>
</g>
</g>
<defs>
<radialGradient id="paint0_radial_2_3" cx="0" cy="0" r="1" gradientUnits="userSpaceOnUse" gradientTransform="translate(131.297 70.1242) rotate(-48.9341) scale(292.992 292.964)">
<stop stop-color="#ED1C24"/>
<stop offset="0.182" stop-color="#E31F26"/>
<stop offset="0.6893" stop-color="#CA252B"/>
<stop offset="1" stop-color="#C1272D"/>
</radialGradient>
<radialGradient id="paint1_radial_2_3" cx="0" cy="0" r="1" gradientUnits="userSpaceOnUse" gradientTransform="translate(190.347 189.479) scale(135.054 135.154)">
<stop stop-color="#ED1C24"/>
<stop offset="0.182" stop-color="#E31F26"/>
<stop offset="0.6893" stop-color="#CA252B"/>
<stop offset="1" stop-color="#C1272D"/>
</radialGradient>
</defs>
</svg>
